<svg width="47" height="46" viewBox="0 0 47 46" fill="none" xmlns="http://www.w3.org/2000/svg">
<path fill-rule="evenodd" clip-rule="evenodd" d="M23.6991 5.66354C19.0207 5.66354 18.435 5.6828 16.5976 5.76549C14.7637 5.84817 13.5108 6.13588 12.4153 6.55612C11.2669 6.98201 10.2253 7.65031 9.36407 8.5157C8.48812 9.36425 7.81017 10.3909 7.3774 11.5242C6.95365 12.6048 6.66082 13.8417 6.57699 15.6506C6.4943 17.4618 6.47363 18.0384 6.47363 22.6541C6.47363 27.2699 6.49316 27.8465 6.57699 29.6588C6.66082 31.4677 6.9525 32.7035 7.37855 33.7841C7.81033 34.9168 8.48787 35.9442 9.36522 36.7937C10.2255 37.6577 11.2664 38.3264 12.4153 38.7533C13.5108 39.1724 14.7637 39.4601 16.5976 39.5428C18.435 39.6255 19.0207 39.6448 23.6991 39.6448C28.3776 39.6448 28.9632 39.6255 30.8006 39.5428C32.6346 39.4601 33.8874 39.1724 34.983 38.7522C36.1313 38.3263 37.1729 37.658 38.0342 36.7926C38.9101 35.944 39.5881 34.9174 40.0209 33.7841C40.4458 32.7035 40.7374 31.4677 40.8213 29.6588C40.9051 27.8465 40.9246 27.2688 40.9246 22.6541C40.9246 18.0395 40.9051 17.4618 40.8213 15.6495C40.7374 13.8406 40.4458 12.6048 40.0197 11.5242C39.5873 10.3904 38.9093 9.36333 38.033 8.51457C37.1728 7.65056 36.1319 6.98185 34.983 6.55498C33.8874 6.13702 32.6334 5.84817 30.7995 5.76549C28.9632 5.68393 28.3787 5.66354 23.6991 5.66354ZM23.6991 8.72525C28.2983 8.72525 28.8438 8.74224 30.6605 8.8238C32.3394 8.89969 33.2512 9.17494 33.8587 9.40941C34.6626 9.71637 35.2368 10.0856 35.8397 10.6792C36.4425 11.2738 36.8158 11.8402 37.127 12.6331C37.3635 13.2323 37.6437 14.1317 37.7207 15.7877C37.8034 17.5796 37.8206 18.1177 37.8206 22.6541C37.8206 27.1906 37.8034 27.7287 37.7207 29.5206C37.6437 31.1766 37.3647 32.076 37.127 32.6752C36.8513 33.4132 36.4114 34.0809 35.8397 34.6291C35.2839 35.1932 34.607 35.6271 33.8587 35.8989C33.2512 36.1322 32.3394 36.4086 30.6605 36.4845C28.8438 36.5661 28.2995 36.583 23.6991 36.583C19.0988 36.583 18.5544 36.5661 16.7377 36.4845C15.0588 36.4086 14.147 36.1334 13.5395 35.8989C12.7913 35.627 12.1144 35.1931 11.5586 34.6291C10.9869 34.0808 10.547 33.4132 10.2713 32.6752C10.0347 32.076 9.75452 31.1766 9.67757 29.5206C9.59489 27.7287 9.57767 27.1906 9.57767 22.6541C9.57767 18.1177 9.59489 17.5796 9.67757 15.7877C9.75452 14.1317 10.0336 13.2323 10.2713 12.6331C10.5825 11.8402 10.9569 11.2738 11.5586 10.6792C12.1143 10.1151 12.7913 9.68123 13.5395 9.40941C14.147 9.17607 15.0588 8.89969 16.7377 8.8238C18.5544 8.74224 19.0999 8.72525 23.6991 8.72525V8.72525Z" fill="black"/>
<path fill-rule="evenodd" clip-rule="evenodd" d="M23.6986 28.3233C22.9438 28.3233 22.1965 28.1767 21.4991 27.8918C20.8018 27.6069 20.1682 27.1893 19.6345 26.6629C19.1008 26.1364 18.6774 25.5115 18.3886 24.8236C18.0997 24.1358 17.9511 23.3986 17.9511 22.6541C17.9511 21.9096 18.0997 21.1724 18.3886 20.4846C18.6774 19.7968 19.1008 19.1718 19.6345 18.6454C20.1682 18.119 20.8018 17.7014 21.4991 17.4165C22.1965 17.1316 22.9438 16.9849 23.6986 16.9849C25.223 16.9849 26.6849 17.5822 27.7628 18.6454C28.8407 19.7086 29.4462 21.1506 29.4462 22.6541C29.4462 24.1577 28.8407 25.5997 27.7628 26.6629C26.6849 27.726 25.223 28.3233 23.6986 28.3233V28.3233ZM23.6986 13.921C21.3504 13.921 19.0984 14.8411 17.438 16.4789C15.7775 18.1166 14.8447 20.338 14.8447 22.6541C14.8447 24.9703 15.7775 27.1916 17.438 28.8294C19.0984 30.4672 21.3504 31.3873 23.6986 31.3873C26.0468 31.3873 28.2989 30.4672 29.9593 28.8294C31.6197 27.1916 32.5525 24.9703 32.5525 22.6541C32.5525 20.338 31.6197 18.1166 29.9593 16.4789C28.2989 14.8411 26.0468 13.921 23.6986 13.921V13.921ZM35.1283 13.7624C35.1283 14.3099 34.9078 14.835 34.5153 15.2221C34.1228 15.6093 33.5905 15.8267 33.0354 15.8267C32.4803 15.8267 31.948 15.6093 31.5555 15.2221C31.163 14.835 30.9425 14.3099 30.9425 13.7624C30.9425 13.2149 31.163 12.6898 31.5555 12.3027C31.948 11.9155 32.4803 11.698 33.0354 11.698C33.5905 11.698 34.1228 11.9155 34.5153 12.3027C34.9078 12.6898 35.1283 13.2149 35.1283 13.7624" fill="black"/>
</svg>
