<svg width="47" height="46" viewBox="0 0 47 46" fill="none" xmlns="http://www.w3.org/2000/svg">
<path d="M23.5048 6.21161C14.0496 6.21161 6.35484 13.522 6.3515 22.5061C6.34928 25.3792 7.14054 28.1832 8.64083 30.6529L6.20703 39.0966L15.301 36.8309C17.8306 38.1361 20.6433 38.8168 23.4981 38.8149H23.5048C32.9599 38.8149 40.6547 31.5035 40.658 22.5193C40.6602 18.1675 38.8777 14.0711 35.6382 10.992C32.3998 7.91177 28.0934 6.21271 23.5048 6.21161ZM23.5048 36.0625H23.4992C20.9409 36.0625 18.4316 35.4091 16.2423 34.1749L15.7199 33.8811L10.3256 35.225L11.7659 30.2265L11.4269 29.7145C10.0032 27.5728 9.24531 25.0672 9.2465 22.5061C9.24983 15.038 15.6466 8.96409 23.5103 8.96409C27.3177 8.96518 30.8973 10.376 33.59 12.9355C36.2827 15.4951 37.7641 18.8987 37.7619 22.5182C37.7586 29.9864 31.3629 36.0625 23.5036 36.0625H23.5048ZM31.3251 25.9174C30.8962 25.7146 28.7891 24.7292 28.3957 24.5922C28.0034 24.4573 27.7178 24.3872 27.4322 24.7949C27.1477 25.2027 26.3253 26.1202 26.0764 26.391C25.8252 26.6628 25.5752 26.6957 25.1462 26.4929C24.7172 26.289 23.3358 25.8593 21.7 24.4716C20.4253 23.3929 19.5651 22.06 19.3151 21.6511C19.065 21.2445 19.2884 21.0241 19.5029 20.8213C19.6951 20.6405 19.9319 20.3467 20.1452 20.1088C20.3586 19.871 20.4297 19.7011 20.5742 19.4292C20.7165 19.1584 20.6453 18.9195 20.5375 18.7167C20.4297 18.5117 19.574 16.5079 19.2151 15.6935C18.8683 14.8998 18.5149 15.0062 18.2515 14.993C18.0015 14.982 17.717 14.9788 17.4292 14.9788C17.1458 14.9788 16.6801 15.0807 16.2867 15.4885C15.8944 15.8963 14.7864 16.8806 14.7864 18.8844C14.7864 20.8893 16.3223 22.8251 16.5368 23.097C16.7513 23.3677 19.5596 27.4817 23.8593 29.2465C24.8817 29.6641 25.6796 29.9151 26.3031 30.1037C27.3299 30.4139 28.2646 30.369 29.0025 30.2648C29.8248 30.1475 31.5385 29.2805 31.8941 28.3301C32.252 27.3797 32.252 26.5642 32.1453 26.3943C32.0408 26.2243 31.7541 26.1224 31.3251 25.9174V25.9174Z" fill="black"/>
</svg>
